<?xml version="1.0" standalone="no"?>
<!DOCTYPE svg PUBLIC "-//W3C//DTD SVG 20010904//EN"
 "http://www.w3.org/TR/2001/REC-SVG-20010904/DTD/svg10.dtd">
<svg version="1.0" xmlns="http://www.w3.org/2000/svg"
 width="16.000000pt" height="16.000000pt" viewBox="0 0 16.000000 16.000000"
 preserveAspectRatio="xMidYMid meet">
<metadata>
Created by potrace 1.11, written by Peter Selinger 2001-2013
</metadata>
<g transform="translate(0.000000,16.000000) scale(0.001600,-0.001600)"
fill="#000000" stroke="none">
<path d="M8539 9416 c-2 -2 -35 -6 -74 -10 -148 -13 -224 -25 -508 -82 -10 -2
-27 -6 -37 -9 -10 -3 -27 -8 -37 -10 -236 -49 -895 -260 -1100 -351 -17 -8
-36 -14 -42 -14 -6 0 -19 -4 -29 -9 -9 -5 -42 -19 -72 -31 -30 -11 -64 -25
-75 -29 -11 -5 -78 -32 -150 -61 -167 -68 -338 -140 -343 -145 -5 -5 18 -37
59 -83 19 -20 47 -53 63 -72 221 -269 508 -550 696 -680 19 -13 37 -27 40 -30
3 -3 37 -26 75 -52 395 -263 1013 -537 1405 -624 19 -4 40 -9 45 -10 25 -6
235 -43 275 -48 159 -20 226 -24 561 -31 l276 -7 46 109 c201 480 328 852 363
1062 3 18 8 43 11 55 2 11 6 80 9 151 8 275 -64 454 -265 656 -190 190 -386
282 -741 345 -37 6 -445 15 -451 10z"/>
<path d="M5305 8624 c-82 -41 -386 -204 -427 -229 -9 -5 -50 -29 -90 -52 -102
-57 -367 -223 -517 -322 -195 -130 -254 -171 -495 -352 -76 -57 -151 -113
-165 -124 -36 -27 -278 -222 -322 -259 -20 -17 -60 -51 -89 -76 -30 -25 -61
-52 -70 -60 -8 -8 -27 -24 -41 -36 -15 -11 -64 -54 -109 -95 -290 -260 -603
-574 -841 -844 -24 -27 -46 -52 -49 -55 -9 -7 -252 -301 -275 -331 -240 -313
-466 -634 -582 -824 -7 -11 -35 -58 -64 -105 -125 -205 -237 -408 -351 -640
-90 -183 -129 -267 -223 -485 -18 -42 -98 -246 -130 -330 -60 -161 -151 -446
-215 -675 -37 -132 -113 -464 -135 -590 -25 -148 -46 -272 -50 -305 -2 -22 -7
-51 -10 -64 -2 -13 -7 -51 -10 -85 -3 -33 -8 -74 -10 -91 -2 -16 -7 -68 -11
-115 -3 -47 -8 -94 -11 -105 -2 -11 -6 -144 -9 -295 -3 -213 -1 -279 8 -291
14 -18 164 -64 278 -85 14 -3 45 -10 70 -15 83 -19 220 -42 320 -54 30 -3 89
-10 130 -15 159 -19 296 -25 595 -25 302 1 402 5 603 25 53 6 120 12 147 15
28 3 61 7 75 10 14 2 45 7 70 10 39 5 324 53 415 70 47 9 404 94 465 111 30 8
64 17 74 19 10 2 33 9 50 14 17 5 78 24 136 41 148 45 496 164 555 190 11 5
81 34 156 64 75 30 156 63 180 74 24 10 98 43 164 72 146 65 587 288 709 358
49 29 91 52 93 52 2 0 51 28 108 63 58 34 113 67 123 72 25 14 220 135 262
162 79 51 111 75 108 82 -2 5 -22 30 -45 57 -195 229 -215 259 -215 343 -2
180 182 295 343 214 45 -23 76 -55 189 -189 l134 -161 156 115 c643 475 1099
888 1670 1513 14 15 45 51 69 79 25 29 50 58 56 64 31 33 175 208 263 321 56
72 106 135 110 140 217 275 523 749 729 1125 155 284 396 800 381 816 -8 7
-137 13 -438 19 -151 3 -304 8 -340 10 -120 7 -264 21 -320 30 -14 2 -56 9
-95 15 -111 17 -128 20 -165 30 -19 5 -83 21 -141 35 -166 39 -474 145 -644
220 -16 7 -59 26 -95 41 -113 49 -461 228 -570 294 -332 201 -560 384 -826
661 -62 65 -153 168 -353 398 -113 131 -157 178 -255 278 l-101 102 -90 -45z
m-530 -990 c11 -4 32 -16 48 -26 34 -24 269 -303 293 -349 23 -44 27 -143 8
-188 -56 -133 -201 -189 -328 -127 -44 22 -74 52 -184 182 -72 86 -139 173
-148 193 -11 22 -18 59 -17 96 1 171 166 282 328 219z m-1859 -1642 c23 -12
66 -49 95 -83 30 -34 59 -67 64 -73 30 -33 144 -175 159 -197 32 -50 40 -135
18 -194 -36 -95 -112 -154 -207 -160 -101 -6 -161 28 -256 145 -20 25 -69 83
-108 130 -40 47 -79 98 -87 113 -23 43 -29 120 -13 174 16 58 96 143 149 160
53 16 139 9 186 -15z m2029 -444 c53 -21 85 -50 178 -163 50 -60 104 -123 119
-140 141 -152 62 -392 -135 -412 -112 -11 -168 21 -282 162 -22 27 -66 79 -97
116 -87 102 -102 132 -102 214 -1 59 3 77 26 116 62 105 186 150 293 107z
m2193 -834 c44 -22 76 -54 183 -183 147 -175 159 -193 166 -263 15 -143 -95
-263 -240 -261 -99 1 -133 26 -288 212 -144 173 -168 216 -163 293 12 174 189
278 342 202z m-5243 -409 c47 -17 85 -55 231 -231 117 -140 140 -187 131 -270
-17 -160 -186 -261 -329 -195 -52 23 -81 49 -139 121 -24 30 -46 57 -49 60
-31 27 -150 183 -160 209 -20 51 -16 140 8 186 29 54 50 78 95 104 69 42 133
47 212 16z m2190 -380 c45 -18 104 -79 231 -235 16 -19 31 -37 34 -40 29 -27
71 -95 82 -135 35 -117 -16 -230 -127 -281 -65 -31 -129 -31 -198 -1 -46 21
-70 45 -182 178 -72 84 -140 174 -152 198 -65 127 11 287 157 332 35 11 111 3
155 -16z m-1164 -1537 c24 -15 61 -47 81 -71 249 -296 246 -292 255 -365 20
-171 -142 -304 -310 -255 -47 14 -97 55 -167 138 -207 247 -224 275 -214 370
8 84 70 167 148 201 52 21 155 12 207 -18z m-1848 -103 c43 -18 93 -68 227
-230 108 -129 129 -170 130 -246 1 -192 -222 -307 -376 -193 -44 32 -273 307
-296 355 -25 53 -25 134 0 192 55 124 188 175 315 122z"/>
</g>
</svg>
